<?xml version="1.0" encoding="utf-8"?>
<!-- Generator: Adobe Illustrator 12.0.0, SVG Export Plug-In . SVG Version: 6.00 Build 51448)  -->
<!DOCTYPE svg PUBLIC "-//W3C//DTD SVG 1.1//EN" "http://www.w3.org/Graphics/SVG/1.1/DTD/svg11.dtd" [
	<!ENTITY ns_svg "http://www.w3.org/2000/svg">
	<!ENTITY ns_xlink "http://www.w3.org/1999/xlink">
]>
<svg  version="1.1" xmlns="&ns_svg;" xmlns:xlink="&ns_xlink;" width="117.379" height="60.249" viewBox="0 0 117.379 60.249"
	 overflow="visible" enable-background="new 0 0 117.379 60.249" xml:space="preserve">
<g id="レイヤー_1">
	<g>
		<path fill="#FFFFFF" d="M1.794,8.361H8.12c2.059,0,3.603,0.842,4.632,2.525s1.544,4.15,1.544,7.401v20.311
			c0,3.251-0.515,5.719-1.544,7.401c-1.029,1.684-2.573,2.524-4.632,2.524H1.794V8.361z M8.045,42.786
			c0.678,0,1.198-0.306,1.563-0.918s0.546-1.607,0.546-2.984V18c0-1.377-0.182-2.371-0.546-2.983
			c-0.364-0.612-0.885-0.918-1.563-0.918H5.936v28.688H8.045z"/>
		<path fill="#FFFFFF" d="M16.212,8.361h6.138c2.134,0,3.69,0.756,4.669,2.267s1.469,3.834,1.469,6.971v2.467
			c0,4.169-0.904,6.809-2.711,7.918v0.115c1.004,0.459,1.713,1.396,2.127,2.811c0.414,1.416,0.622,3.309,0.622,5.68v7.058
			c0,1.147,0.025,2.075,0.075,2.782c0.05,0.709,0.176,1.406,0.377,2.095H24.76c-0.151-0.65-0.251-1.263-0.301-1.836
			c-0.05-0.573-0.075-1.606-0.075-3.099v-7.344c0-1.836-0.195-3.117-0.584-3.844s-1.061-1.09-2.014-1.09h-1.431v17.212h-4.142V8.361
			z M21.861,25.573c0.828,0,1.45-0.325,1.864-0.975s0.622-1.74,0.622-3.271v-3.098c0-1.453-0.169-2.505-0.508-3.155
			s-0.873-0.976-1.601-0.976h-1.883v11.475H21.861z"/>
		<path fill="#FFFFFF" d="M30.518,8.361h11.297v5.738H34.66v10.614h5.686v5.737H34.66v12.336h7.155v5.737H30.518V8.361z"/>
		<path fill="#FFFFFF" d="M43.92,8.361h5.912l2.636,28.746h0.075L55.18,8.361h5.912v40.163h-3.917V18.115H57.1l-3.013,30.409h-3.464
			l-3.012-30.409h-0.076v30.409H43.92V8.361z"/>
		<path fill="#FFFFFF" d="M66.965,8.361h5.439l4.16,40.163H72.55l-0.729-7.976v0.115h-4.563l-0.73,7.86h-3.723L66.965,8.361z
			 M71.346,35.212l-1.789-19.851h-0.072l-1.752,19.851H71.346z"/>
		<path fill="#FFFFFF" d="M79.922,14.099h-4.197V8.361h12.41v5.738h-4.198v34.425h-4.015V14.099z"/>
		<path fill="#FFFFFF" d="M90.226,8.361h11.297v5.738h-7.155v10.614h5.687v5.737h-5.687v12.336h7.155v5.737H90.226V8.361z"/>
		<path fill="#FFFFFF" d="M104.001,8.361h6.138c2.134,0,3.69,0.756,4.67,2.267c0.979,1.511,1.469,3.834,1.469,6.971v2.467
			c0,4.169-0.904,6.809-2.712,7.918v0.115c1.004,0.459,1.714,1.396,2.128,2.811c0.414,1.416,0.621,3.309,0.621,5.68v7.058
			c0,1.147,0.025,2.075,0.075,2.782c0.05,0.709,0.176,1.406,0.377,2.095h-4.218c-0.15-0.65-0.252-1.263-0.301-1.836
			c-0.051-0.573-0.076-1.606-0.076-3.099v-7.344c0-1.836-0.194-3.117-0.584-3.844c-0.389-0.727-1.061-1.09-2.014-1.09h-1.432v17.212
			h-4.142V8.361z M109.649,25.573c0.828,0,1.45-0.325,1.864-0.975s0.621-1.74,0.621-3.271v-3.098c0-1.453-0.17-2.505-0.508-3.155
			c-0.34-0.65-0.873-0.976-1.602-0.976h-1.883v11.475H109.649z"/>
	</g>
</g>
<g id="レイヤー_2" display="none">
	<g>
		<text transform="matrix(0.6561 0 0 1 0 48.7734)" display="inline" font-family="'BebasNeue-Regular'" font-size="57.381">DR</text>
		<text transform="matrix(0.6561 0 0 1 28.7241 48.7734)" display="inline" font-family="'BebasNeue-Regular'" font-size="57.381">EM</text>
		
			<text transform="matrix(0.6361 0 0 1 62.1162 48.7734)" display="inline" font-family="'BebasNeue-Regular'" font-size="57.381" letter-spacing="-1.572">A</text>
		<text transform="matrix(0.6361 0 0 1 75.0361 48.7734)" display="inline" font-family="'BebasNeue-Regular'" font-size="57.381">T</text>
		<text transform="matrix(0.6561 0 0 1 88.4316 48.7734)" display="inline" font-family="'BebasNeue-Regular'" font-size="57.381">E</text>
		<text transform="matrix(0.6561 0 0 1 102.207 48.7734)" display="inline" font-family="'BebasNeue-Regular'" font-size="57.381">R</text>
	</g>
</g>
</svg>
